<svg id="Capa_1" enable-background="new 0 0 512 512" height="512" viewBox="0 0 512 512" width="512" xmlns="http://www.w3.org/2000/svg"><g><g><path d="m132.5 471.84v-289.34h372v289.344c0 15.588-17.208 25.466-30.372 17.116-4.089-2.593-9.022-4.461-16.126-4.461-23.25 0-23.25 20-46.5 20-23.249 0-23.249-20-46.497-20-23.249 0-23.249 20-46.498 20-23.25 0-23.25-20-46.5-20-23.249 0-23.249 20-46.498 20-23.252 0-23.252-20-46.505-20-7.105 0-12.039 1.867-16.129 4.461-13.165 8.35-30.375-1.529-30.375-17.12z" fill="#e9edf5"/></g><g><path d="m212.5 397.5h292v-215h-372v289.34c0 15.591 17.21 25.47 30.376 17.12 4.09-2.593 9.024-4.461 16.129-4.461 5.651 0 9.923 1.187 13.495 2.975v-69.974c0-11.046 8.954-20 20-20z" fill="#dce1eb"/></g><g><path d="m57.5 7.5c-27.614 0-50 78.35-50 175s22.386 175 50 175h397v-350z" fill="#f2f6fc"/></g><g><g><g><ellipse cx="122.153" cy="216.047" fill="#ffa4d2" rx="30.938" ry="24.637"/></g><g><ellipse cx="289.847" cy="216.047" fill="#ffa4d2" rx="30.938" ry="24.637"/></g><g><ellipse cx="206" cy="197.117" fill="#555a66" rx="16.423" ry="18.377"/></g></g><g><path d="m127.325 193.816c-4.143 0-7.5-3.358-7.5-7.5v-12c0-4.142 3.357-7.5 7.5-7.5s7.5 3.358 7.5 7.5v12c0 4.142-3.357 7.5-7.5 7.5z"/></g><g><path d="m206 222.994c-13.191 0-23.923-11.608-23.923-25.877s10.732-25.877 23.923-25.877 23.923 11.608 23.923 25.877-10.732 25.877-23.923 25.877zm0-36.754c-4.92 0-8.923 4.879-8.923 10.877s4.003 10.877 8.923 10.877 8.923-4.879 8.923-10.877-4.003-10.877-8.923-10.877z"/></g><g><path d="m284.675 193.816c-4.143 0-7.5-3.358-7.5-7.5v-12c0-4.142 3.357-7.5 7.5-7.5s7.5 3.358 7.5 7.5v12c0 4.142-3.358 7.5-7.5 7.5z"/></g></g><g><ellipse cx="454.5" cy="182.5" fill="#e9edf5" rx="50" ry="175"/></g><g><path d="m121.881 50h-39.667c-4.143 0-7.5 3.358-7.5 7.5s3.357 7.5 7.5 7.5h39.667c4.143 0 7.5-3.358 7.5-7.5s-3.358-7.5-7.5-7.5z"/><path d="m201.214 50h-39.667c-4.143 0-7.5 3.358-7.5 7.5s3.357 7.5 7.5 7.5h39.667c4.143 0 7.5-3.358 7.5-7.5s-3.358-7.5-7.5-7.5z"/><path d="m280.547 50h-39.666c-4.143 0-7.5 3.358-7.5 7.5s3.357 7.5 7.5 7.5h39.666c4.143 0 7.5-3.358 7.5-7.5s-3.358-7.5-7.5-7.5z"/><path d="m367.381 57.5c0-4.142-3.357-7.5-7.5-7.5h-39.667c-4.143 0-7.5 3.358-7.5 7.5s3.357 7.5 7.5 7.5h39.667c4.142 0 7.5-3.358 7.5-7.5z"/><path d="m447 142.5v80c0 4.142 3.357 7.5 7.5 7.5s7.5-3.358 7.5-7.5v-80c0-4.142-3.357-7.5-7.5-7.5s-7.5 3.358-7.5 7.5z"/><path d="m497.066 56.696c-10.596-37.091-25.316-56.696-42.566-56.696-.404 0-.804.021-1.205.043-.262-.028-.526-.043-.795-.043h-395c-17.25 0-31.97 19.605-42.566 56.696-9.63 33.704-14.934 78.383-14.934 125.804s5.304 92.1 14.934 125.804c10.596 37.091 25.316 56.696 42.566 56.696h67.5v106.84c0 10.077 5.508 19.366 14.374 24.242 8.812 4.847 19.1 4.551 27.519-.788 2.419-1.534 5.981-3.294 12.112-3.294 8.844 0 12.836 3.434 18.361 8.186 6.119 5.263 13.736 11.814 28.144 11.814 14.406 0 22.021-6.551 28.141-11.814 5.523-4.752 9.515-8.186 18.357-8.186s12.835 3.434 18.359 8.186c6.118 5.263 13.733 11.814 28.141 11.814 14.406 0 22.021-6.551 28.14-11.814 5.524-4.752 9.516-8.186 18.358-8.186s12.833 3.434 18.356 8.186c6.119 5.264 13.734 11.814 28.141 11.814s22.022-6.551 28.142-11.814c5.523-4.752 9.515-8.186 18.357-8.186 6.13 0 9.69 1.76 12.109 3.294 8.42 5.34 18.705 5.635 27.516.79 8.865-4.875 14.373-14.164 14.373-24.24v-289.344c0-47.421-5.304-92.1-14.934-125.804zm-14.422 4.121c9.257 32.401 14.356 75.616 14.356 121.683s-5.099 89.282-14.356 121.683c-9.663 33.818-21.2 45.817-28.144 45.817s-18.481-11.999-28.144-45.817c-9.257-32.401-14.356-75.616-14.356-121.683s5.099-89.282 14.356-121.683c.059-.208.12-.405.179-.61.156-.404.283-.822.368-1.256 9.548-32.383 20.783-43.951 27.597-43.951 6.944 0 18.481 11.999 28.144 45.817zm7.754 422.123c-1.893 1.041-6.879 3.096-12.253-.313-6.053-3.839-12.453-5.627-20.144-5.627-14.406 0-22.021 6.551-28.14 11.814-5.524 4.752-9.517 8.186-18.359 8.186s-12.834-3.434-18.358-8.186c-6.118-5.263-13.732-11.814-28.138-11.814s-22.021 6.551-28.14 11.814c-5.524 4.752-9.516 8.186-18.358 8.186s-12.835-3.434-18.359-8.186c-6.119-5.263-13.734-11.814-28.141-11.814-14.406 0-22.021 6.551-28.141 11.814-5.523 4.752-9.515 8.186-18.357 8.186-8.845 0-12.837-3.434-18.362-8.186-6.12-5.264-13.736-11.814-28.143-11.814-7.69 0-14.092 1.788-20.146 5.627-5.375 3.41-10.361 1.354-12.257.313-4.134-2.274-6.603-6.423-6.603-11.099v-106.841h190.784c4.143 0 7.5-3.358 7.5-7.5s-3.357-7.5-7.5-7.5h-273.283c-6.944 0-18.481-11.999-28.144-45.817-9.257-32.402-14.356-75.616-14.356-121.683 0-44.115 4.679-85.607 13.205-117.5h14.342c4.143 0 7.5-3.358 7.5-7.5s-3.357-7.5-7.5-7.5h-9.787c8.856-25.592 18.596-35 24.74-35h372.816c-6.109 8.325-11.607 20.04-16.364 35h-14.405c-4.143 0-7.5 3.358-7.5 7.5s3.357 7.5 7.5 7.5h10.162c-8.217 32.575-12.709 73.873-12.709 117.5 0 47.421 5.304 92.1 14.934 125.804 5.198 18.192 11.389 32.167 18.382 41.696h-64.532c-4.143 0-7.5 3.358-7.5 7.5s3.357 7.5 7.5 7.5h86.716c.269 0 .533-.015.795-.043.401.021.802.043 1.205.043 17.214 0 31.908-19.527 42.5-56.469v163.314c0 4.674-2.468 8.822-6.602 11.095z"/></g></g></svg>